<svg width="570" height="579" viewBox="0 0 570 579" fill="none" xmlns="http://www.w3.org/2000/svg">
<g opacity="0.7">
<path d="M462.94 277.545L451.747 319.321" stroke="#3C2745" stroke-width="43.25" stroke-linecap="round" stroke-linejoin="round"/>
<path d="M395.777 528.202L384.583 569.979" stroke="#3C2745" stroke-width="43.25" stroke-linecap="round" stroke-linejoin="round"/>
<path d="M356.598 674.419C495.033 711.513 637.326 629.36 674.419 490.925C711.513 352.491 629.36 210.197 490.925 173.104C352.491 136.011 210.197 218.164 173.104 356.598C136.011 495.033 218.164 637.326 356.598 674.419Z" stroke="#3C2745" stroke-width="43.25" stroke-linecap="round" stroke-linejoin="round"/>
<path d="M333.112 511.412L427.109 536.598C440.959 540.309 455.716 538.366 468.133 531.197C480.55 524.028 489.611 512.22 493.322 498.37C497.033 484.52 495.09 469.764 487.921 457.346C480.752 444.929 468.944 435.868 455.094 432.157L392.43 415.366C378.58 411.655 366.772 402.594 359.602 390.177C352.433 377.76 350.491 363.003 354.202 349.154C357.913 335.304 366.973 323.496 379.391 316.326C391.808 309.157 406.565 307.215 420.414 310.926L514.411 336.112" stroke="#3C2745" stroke-width="43.25" stroke-linecap="round" stroke-linejoin="round"/>
</g>
</svg>
